REM DIRINDEX 1\2\5,1\2\6,1\2\7,1\2\8,1\3\9,1\3\10,1\3\11,1\4\12,1\4\13,1\4\14,1\4\15,1\4\16
REM DIRNAME folder01,folder02,folder03,folder04,folder05,folder06,folder07,folder08,folder09,folder10,folder11,folder12,folder13,folder14,folder15,folder16
TITLE ""
FILE "1200_sec05_1448_1455.mp3" MP3
  TRACK 01 AUDIO
    TITLE "0:"
    INDEX 01 00:00:00
  TRACK 02 AUDIO
    TITLE "12:cjc034_09535"
    INDEX 01 00:00:17
  TRACK 03 AUDIO
    TITLE "0:"
    INDEX 01 00:01:42
  TRACK 04 AUDIO
    TITLE "13:cjc034_09536"
    INDEX 01 00:01:73
  TRACK 05 AUDIO
    TITLE "0:"
    INDEX 01 00:03:53
  TRACK 06 AUDIO
    TITLE "14:cjc034_09537"
    INDEX 01 00:04:13
  TRACK 07 AUDIO
    TITLE "0:"
    INDEX 01 00:05:38
  TRACK 08 AUDIO
    TITLE "15:cjc034_09538"
    INDEX 01 00:05:69
  TRACK 09 AUDIO
    TITLE "0:"
    INDEX 01 00:10:72
  TRACK 10 AUDIO
    TITLE "12:cjc034_09539"
    INDEX 01 00:12:30
  TRACK 11 AUDIO
    TITLE "0:"
    INDEX 01 00:13:51
  TRACK 12 AUDIO
    TITLE "13:cjc034_09540"
    INDEX 01 00:14:09
  TRACK 13 AUDIO
    TITLE "0:"
    INDEX 01 00:16:24
  TRACK 14 AUDIO
    TITLE "14:cjc034_09541"
    INDEX 01 00:16:57
  TRACK 15 AUDIO
    TITLE "0:"
    INDEX 01 00:18:03
  TRACK 16 AUDIO
    TITLE "15:cjc034_09542"
    INDEX 01 00:18:35
  TRACK 17 AUDIO
    TITLE "0:"
    INDEX 01 00:22:74
  TRACK 18 AUDIO
    TITLE "12:cjc034_09543"
    INDEX 01 00:24:31
  TRACK 19 AUDIO
    TITLE "0:"
    INDEX 01 00:25:52
  TRACK 20 AUDIO
    TITLE "13:cjc034_09544"
    INDEX 01 00:26:15
  TRACK 21 AUDIO
    TITLE "0:"
    INDEX 01 00:30:40
  TRACK 22 AUDIO
    TITLE "14:cjc034_09545"
    INDEX 01 00:30:73
  TRACK 23 AUDIO
    TITLE "0:"
    INDEX 01 00:32:17
  TRACK 24 AUDIO
    TITLE "15:cjc034_09546"
    INDEX 01 00:32:54
  TRACK 25 AUDIO
    TITLE "0:"
    INDEX 01 00:36:70
  TRACK 26 AUDIO
    TITLE "12:cjc034_09547"
    INDEX 01 00:38:28
  TRACK 27 AUDIO
    TITLE "0:"
    INDEX 01 00:39:52
  TRACK 28 AUDIO
    TITLE "13:cjc034_09548"
    INDEX 01 00:40:11
  TRACK 29 AUDIO
    TITLE "0:"
    INDEX 01 00:44:07
  TRACK 30 AUDIO
    TITLE "14:cjc034_09549"
    INDEX 01 00:44:38
  TRACK 31 AUDIO
    TITLE "0:"
    INDEX 01 00:45:65
  TRACK 32 AUDIO
    TITLE "15:cjc034_09550"
    INDEX 01 00:46:25
  TRACK 33 AUDIO
    TITLE "0:"
    INDEX 01 00:50:70
  TRACK 34 AUDIO
    TITLE "12:cjc034_09551"
    INDEX 01 00:52:28
  TRACK 35 AUDIO
    TITLE "0:"
    INDEX 01 00:53:35
  TRACK 36 AUDIO
    TITLE "13:cjc034_09552"
    INDEX 01 00:53:68
  TRACK 37 AUDIO
    TITLE "0:"
    INDEX 01 00:57:21
  TRACK 38 AUDIO
    TITLE "14:cjc034_09553"
    INDEX 01 00:57:52
  TRACK 39 AUDIO
    TITLE "0:"
    INDEX 01 00:58:60
  TRACK 40 AUDIO
    TITLE "15:cjc034_09554"
    INDEX 01 00:59:18
  TRACK 41 AUDIO
    TITLE "0:"
    INDEX 01 01:04:27
  TRACK 42 AUDIO
    TITLE "12:cjc034_09555"
    INDEX 01 01:05:60
  TRACK 43 AUDIO
    TITLE "0:"
    INDEX 01 01:07:00
  TRACK 44 AUDIO
    TITLE "13:cjc034_09556"
    INDEX 01 01:07:31
  TRACK 45 AUDIO
    TITLE "0:"
    INDEX 01 01:09:42
  TRACK 46 AUDIO
    TITLE "14:cjc034_09557"
    INDEX 01 01:10:00
  TRACK 47 AUDIO
    TITLE "0:"
    INDEX 01 01:11:15
  TRACK 48 AUDIO
    TITLE "15:cjc034_09558"
    INDEX 01 01:11:47
  TRACK 49 AUDIO
    TITLE "0:"
    INDEX 01 01:17:02
  TRACK 50 AUDIO
    TITLE "12:cjc034_09559"
    INDEX 01 01:18:33
  TRACK 51 AUDIO
    TITLE "0:"
    INDEX 01 01:19:52
  TRACK 52 AUDIO
    TITLE "13:cjc034_09560"
    INDEX 01 01:20:14
  TRACK 53 AUDIO
    TITLE "0:"
    INDEX 01 01:22:60
  TRACK 54 AUDIO
    TITLE "14:cjc034_09561"
    INDEX 01 01:23:18
  TRACK 55 AUDIO
    TITLE "0:"
    INDEX 01 01:24:37
  TRACK 56 AUDIO
    TITLE "15:cjc034_09562"
    INDEX 01 01:25:02
  TRACK 57 AUDIO
    TITLE "0:"
    INDEX 01 01:28:04
  TRACK 58 AUDIO
    TITLE "12:cjc034_09563"
    INDEX 01 01:29:35
  TRACK 59 AUDIO
    TITLE "0:"
    INDEX 01 01:30:69
  TRACK 60 AUDIO
    TITLE "13:cjc034_09564"
    INDEX 01 01:31:24
  TRACK 61 AUDIO
    TITLE "0:"
    INDEX 01 01:35:10
  TRACK 62 AUDIO
    TITLE "14:cjc034_09565"
    INDEX 01 01:35:43
  TRACK 63 AUDIO
    TITLE "0:"
    INDEX 01 01:37:01
  TRACK 64 AUDIO
    TITLE "15:cjc034_09566"
    INDEX 01 01:37:32
  TRACK 65 AUDIO
    TITLE "0:"
    INDEX 01 01:42:63
